<svg version="1.1" id="Layer_1" xmlns="http://www.w3.org/2000/svg" xmlns:xlink="http://www.w3.org/1999/xlink" x="0px" y="0px"
	 width="100%" viewBox="0 0 72 66" enable-background="new 0 0 72 66" xml:space="preserve">
<path fill="#FFFFFF" opacity="1.000000" stroke="none"
  d="
M73.000000,23.999840 
	C73.000000,38.666557 73.000000,52.833218 73.000000,66.999908 
	C49.000050,66.999939 25.000101,66.999939 1.000113,66.999969 
	C1.000075,45.000061 1.000075,23.000118 1.000038,1.000134 
	C24.999931,1.000089 48.999863,1.000089 72.999893,1.000045 
	C73.000000,8.499928 73.000000,15.999856 73.000000,23.999840 
M42.010544,21.226616 
	C41.039970,15.385557 36.484402,18.908039 33.607151,18.154266 
	C32.990753,17.992785 31.982864,19.325655 31.155323,19.970121 
	C31.961143,20.638422 32.722488,21.806847 33.580952,21.883190 
	C36.388256,22.132845 39.230923,21.984789 41.829014,22.601011 
	C40.539619,24.053867 39.250221,25.506721 37.324230,27.174662 
	C26.761005,37.735508 16.229832,48.328785 5.605922,58.828224 
	C3.620931,60.789963 3.571565,62.239109 5.591449,64.180305 
	C7.387896,65.906776 8.798687,66.826859 10.945772,64.628906 
	C21.598949,53.723354 32.331234,42.895077 43.644081,31.800196 
	C45.106682,30.520803 46.569286,29.241411 48.007442,28.873808 
	C48.668087,32.207638 46.363361,36.272953 50.989029,39.931252 
	C50.989029,35.860176 51.198040,32.915924 50.850391,30.038935 
	C50.756863,29.264923 48.970932,28.695415 48.186287,27.388720 
	C49.454132,26.092550 50.649044,24.713440 52.006805,23.519527 
	C54.076836,21.699305 54.690048,20.134171 52.423943,17.802305 
	C50.029240,15.338110 48.352673,15.818819 46.336918,18.099928 
	C45.046402,19.560324 43.449070,20.749594 42.010544,21.226616 
M58.295998,21.714468 
	C61.493656,21.714468 64.691315,21.714468 67.945793,21.714468 
	C67.905304,17.099550 64.772461,17.791334 62.573936,18.131025 
	C60.779099,18.408344 57.554806,17.321651 58.295998,21.714468 
M57.962845,9.544934 
	C56.833023,11.033283 55.703205,12.521633 54.573387,14.009983 
	C55.139755,14.546478 55.706123,15.082973 56.272488,15.619469 
	C58.735432,13.317689 61.228596,11.046269 63.616497,8.669107 
	C63.866676,8.420053 63.700504,7.300840 63.364265,7.019587 
	C62.847973,6.587718 61.771393,6.140360 61.365948,6.393556 
	C60.277588,7.073223 59.419090,8.120968 57.962845,9.544934 
M38.133137,6.077144 
	C35.266556,6.021141 35.483406,7.574041 36.759914,9.148932 
	C38.213287,10.942042 39.912670,12.565045 41.677502,14.058261 
	C42.195305,14.496371 43.299686,14.241201 44.135227,14.303776 
	C44.070572,13.449515 44.327339,12.333282 43.883183,11.788332 
	C42.324612,9.876081 40.524769,8.160482 38.133137,6.077144 
M55.095470,26.704355 
	C57.201611,29.979134 59.330795,33.224438 63.907349,34.150154 
	C62.948833,29.080124 59.224213,25.777660 55.095470,26.704355 
M48.002087,5.615399 
	C48.633438,8.076278 46.323620,11.609805 50.671173,13.001879 
	C50.671173,9.218292 50.671173,5.699704 50.671173,1.969351 
	C49.706535,2.148172 48.792149,2.060300 48.557068,2.418383 
	C48.150581,3.037564 48.165558,3.933433 48.002087,5.615399 
z"/>
<path fill="#424A60" opacity="1.000000" stroke="none"
  d="
M43.035648,32.039570 
	C32.331234,42.895077 21.598949,53.723354 10.945772,64.628906 
	C8.798687,66.826859 7.387896,65.906776 5.591449,64.180305 
	C3.571565,62.239109 3.620931,60.789963 5.605922,58.828224 
	C16.229832,48.328785 26.761005,37.735508 37.803833,27.359373 
	C39.867504,29.042580 41.451576,30.541075 43.035648,32.039570 
z"/>
<path fill="#7383BF" opacity="1.000000" stroke="none"
  d="
M43.339867,31.919884 
	C41.451576,30.541075 39.867504,29.042580 38.122131,27.251831 
	C39.250221,25.506721 40.539619,24.053867 41.933487,22.319687 
	C42.037964,22.038364 41.989281,22.060410 41.989281,22.060410 
	C43.449070,20.749594 45.046402,19.560324 46.336918,18.099928 
	C48.352673,15.818819 50.029240,15.338110 52.423943,17.802305 
	C54.690048,20.134171 54.076836,21.699305 52.006805,23.519527 
	C50.649044,24.713440 49.454132,26.092550 48.081001,27.682285 
	C47.975712,27.975853 48.031887,27.962019 48.031887,27.962019 
	C46.569286,29.241411 45.106682,30.520803 43.339867,31.919884 
z"/>
<path fill="#EABB18" opacity="1.000000" stroke="none"
  d="
M42.048981,22.014017 
	C39.230923,21.984789 36.388256,22.132845 33.580952,21.883190 
	C32.722488,21.806847 31.961143,20.638422 31.155323,19.970121 
	C31.982864,19.325655 32.990753,17.992785 33.607151,18.154266 
	C36.484402,18.908039 41.039970,15.385557 41.999912,21.643513 
	C41.989281,22.060410 42.037964,22.038364 42.048981,22.014017 
z"/>
<path fill="#ECBB17" opacity="1.000000" stroke="none"
  d="
M57.996132,21.411903 
	C57.554806,17.321651 60.779099,18.408344 62.573936,18.131025 
	C64.772461,17.791334 67.905304,17.099550 67.945793,21.714468 
	C64.691315,21.714468 61.493656,21.714468 57.996132,21.411903 
z"/>
<path fill="#EBBA16" opacity="1.000000" stroke="none"
  d="
M58.216080,9.283737 
	C59.419090,8.120968 60.277588,7.073223 61.365948,6.393556 
	C61.771393,6.140360 62.847973,6.587718 63.364265,7.019587 
	C63.700504,7.300840 63.866676,8.420053 63.616497,8.669107 
	C61.228596,11.046269 58.735432,13.317689 56.272488,15.619469 
	C55.706123,15.082973 55.139755,14.546478 54.573387,14.009983 
	C55.703205,12.521633 56.833023,11.033283 58.216080,9.283737 
z"/>
<path fill="#EABB15" opacity="1.000000" stroke="none"
  d="
M38.474831,6.223685 
	C40.524769,8.160482 42.324612,9.876081 43.883183,11.788332 
	C44.327339,12.333282 44.070572,13.449515 44.135227,14.303776 
	C43.299686,14.241201 42.195305,14.496371 41.677502,14.058261 
	C39.912670,12.565045 38.213287,10.942042 36.759914,9.148932 
	C35.483406,7.574041 35.266556,6.021141 38.474831,6.223685 
z"/>
<path fill="#EBBB14" opacity="1.000000" stroke="none"
  d="
M55.266281,26.400446 
	C59.224213,25.777660 62.948833,29.080124 63.907349,34.150154 
	C59.330795,33.224438 57.201611,29.979134 55.266281,26.400446 
z"/>
<path fill="#ECB915" opacity="1.000000" stroke="none"
  d="
M48.002911,5.164315 
	C48.165558,3.933433 48.150581,3.037564 48.557068,2.418383 
	C48.792149,2.060300 49.706535,2.148172 50.671173,1.969351 
	C50.671173,5.699704 50.671173,9.218292 50.671173,13.001879 
	C46.323620,11.609805 48.633438,8.076278 48.002911,5.164315 
z"/>
<path fill="#EBB915" opacity="1.000000" stroke="none"
  d="
M47.968796,28.003942 
	C48.970932,28.695415 50.756863,29.264923 50.850391,30.038935 
	C51.198040,32.915924 50.989029,35.860176 50.989029,39.931252 
	C46.363361,36.272953 48.668087,32.207638 48.019665,28.417913 
	C48.031887,27.962019 47.975712,27.975853 47.968796,28.003942 
z"/>
</svg>